<?xml version="1.0" encoding="UTF-8"?>
<svg id="Capa_2" data-name="Capa 2" xmlns="http://www.w3.org/2000/svg" viewBox="0 0 30.64 34.98">
  <defs>
    <style>
      .cls-1 {
        fill: #fff;
        stroke-width: 0px;
      }
    </style>
  </defs>
  <g id="TEXTOS">
    <g>
      <path class="cls-1" d="M7.21,13.57c0-.07-.3-.16-.83,0,.08.04.16.08.24.1.29.09.52.02.59-.09Z"/>
      <path class="cls-1" d="M10.42,8.54c.05.21.14.39.22.5,0-.03-.01-.06-.02-.09-.04-.13-.11-.28-.2-.41Z"/>
      <path class="cls-1" d="M12.26,14.28c.17-.11.35-.19.54-.2.23-.02.55.03.89.3.33-.24.66-.37,1-.35.24.01.47.1.69.25.21-.15.43-.23.66-.25.31-.03.66.09.99.33.35-.3.68-.35.93-.33.17.02.32.08.47.17.27-1.13.79-2,1.66-2,1.41,0,1.91,2.31,1.91,4.28,0,.71-.07,1.45-.21,2.12.28.29.97.84,2.08.84,1.43,0,2.96-1.19,2.96-2.96,0-1.03-.54-1.74-1.09-2.19-.33.35-.75.61-1.2.74-.89.26-1.78-.02-2.21-.7-.37-.57-.35-1.23.05-1.71.54-.65,1.63-.78,2.78-.33.03-.18.05-.37.05-.56,0-.02-.22-3.15-3.38-3.58,0,.02,0,.04,0,.06,0,.78-.38,1.79-1.11,2.19-.46.25-.99.23-1.46-.07-.53-.34-.71-1.02-.49-1.78.19-.66.64-1.24,1.2-1.57-.28-.4-.81-.89-1.71-.89-.81,0-1.26.44-1.46.7-.11.15-.2.32-.26.49.07,0,.14-.01.22,0,.5.02.96.29,1.2.71.21.36.22.79.03,1.14-.16.3-.43.51-.74.59.06.19.07.37.05.55-.04.31-.21.57-.46.74-.27.19-.62.2-.94.05-.18-.09-.36-.24-.5-.42-.14.18-.32.33-.5.42-.32.15-.67.13-.94-.05-.25-.17-.41-.44-.46-.74-.03-.18,0-.36.04-.55-.32-.08-.58-.28-.74-.59-.19-.35-.17-.78.03-1.14.24-.41.69-.69,1.19-.71.07,0,.15,0,.22,0-.06-.17-.15-.34-.26-.49-.2-.26-.64-.7-1.46-.7-.9,0-1.43.49-1.71.89.56.33,1.01.91,1.2,1.57.22.77.03,1.45-.49,1.78-.47.3-1,.33-1.46.07-.73-.4-1.11-1.41-1.11-2.19,0-.02,0-.04,0-.06-3.16.44-3.38,3.56-3.38,3.6,0,.19.02.37.05.55,1.15-.45,2.23-.32,2.78.33.4.48.42,1.14.05,1.71-.44.68-1.32.96-2.21.7-.45-.13-.86-.39-1.2-.74-.55.45-1.09,1.16-1.09,2.19,0,1.77,1.53,2.96,2.96,2.96,1.03,0,1.69-.47,2.01-.77-.16-.69-.23-1.46-.23-2.19,0-1.98.5-4.28,1.91-4.28.88,0,1.41.91,1.68,2.08Z"/>
      <path class="cls-1" d="M10.58,13.81c-.19.38-.46,1.26-.46,2.68s.27,2.3.46,2.68c.19-.37.46-1.24.46-2.64l-.04-.31h.03c-.03-1.25-.27-2.06-.45-2.41Z"/>
      <path class="cls-1" d="M30.64,15.32C30.64,6.87,23.77,0,15.32,0S0,6.87,0,15.32c0,4.28,1.81,8.39,4.96,11.28,2.14,2.02,3.37,4.81,3.37,7.66v.72h5.15l-1.91-14.72c-.26.31-.58.51-.98.51-.47,0-.84-.28-1.12-.7-.57.41-1.42.82-2.56.82-2.13,0-4.4-1.77-4.4-4.41,0-1.71.93-2.8,1.81-3.45-.12-.4-.18-.83-.18-1.29,0-1.03.89-4.84,5.2-5.06.51-1.02,1.58-2.03,3.2-2.03,1.07,0,2,.46,2.61,1.28.09.12.17.25.25.38.07-.13.15-.26.25-.38.62-.83,1.54-1.28,2.61-1.28,1.62,0,2.69,1.01,3.2,2.03,4.31.22,5.2,4.03,5.2,5.06,0,.47-.06.9-.18,1.29.87.65,1.81,1.75,1.81,3.45,0,2.64-2.28,4.41-4.41,4.41-1.19,0-2.06-.44-2.62-.86-.29.45-.66.74-1.15.74-.4,0-.71-.2-.98-.51l-1.91,14.72h5.14v-.72c0-2.93,1.28-5.77,3.51-7.8l1.32-1.25h-.13c2.34-2.76,3.62-6.24,3.62-9.89Z"/>
      <path class="cls-1" d="M15.73,34.98l2.15-16.44c-.2.2-.44.32-.71.32-.29,0-.56-.13-.76-.36-.06-.07-.11-.15-.16-.23-.05.09-.11.18-.17.25-.2.22-.47.35-.75.35h-.05c-.26,0-.52-.14-.7-.36-.04-.05-.08-.11-.12-.18-.04.06-.08.13-.13.18-.2.23-.45.35-.76.36-.31,0-.59-.14-.79-.39,0,0-.01-.02-.02-.03l2.16,16.54h.8Z"/>
      <path class="cls-1" d="M20.1,9.03c.08-.1.17-.28.22-.49-.09.13-.16.27-.2.41,0,.03-.02.06-.02.08Z"/>
      <path class="cls-1" d="M20.07,19.17c.19-.38.46-1.26.46-2.68s-.27-2.3-.46-2.68c-.18.35-.42,1.15-.45,2.4h.03s-.04.32-.04.32c0,1.4.27,2.27.46,2.64Z"/>
      <path class="cls-1" d="M24.11,13.66c.08-.02.16-.06.24-.1-.23-.07-.4-.08-.52-.08-.24,0-.35.07-.36.08.12.11.35.18.64.1Z"/>
    </g>
  </g>
</svg>