<?xml version="1.0" encoding="UTF-8"?>
<svg id="Capa_2" data-name="Capa 2" xmlns="http://www.w3.org/2000/svg" viewBox="0 0 30.64 34.98">
  <defs>
    <style>
      .cls-1 {
        fill: #fff;
        stroke-width: 0px;
      }
    </style>
  </defs>
  <g id="TEXTOS">
    <path class="cls-1" d="M30.64,15.32C30.64,6.87,23.77,0,15.32,0S0,6.87,0,15.32c0,4.28,1.81,8.39,4.96,11.28,2.14,2.02,3.37,4.81,3.37,7.66v.72h14v-.72c0-2.93,1.28-5.77,3.51-7.8l1.32-1.25h-.13c2.34-2.76,3.62-6.24,3.62-9.89ZM14.84,33.54l-2.08-15.1s.01.02.02.03c.2.25.48.39.79.39.3-.01.56-.13.75-.36.05-.05.09-.12.13-.18.04.06.08.12.12.18.19.22.44.35.74.36h.02c.28,0,.55-.12.75-.35.07-.07.12-.16.17-.25.05.08.1.16.16.23.2.23.47.36.76.36.27,0,.51-.12.71-.32l-2.07,15h-.97ZM11.04,16.53c0,1.4-.27,2.27-.46,2.64-.19-.38-.46-1.26-.46-2.68s.27-2.3.46-2.68c.18.35.42,1.15.45,2.4h-.03s.04.32.04.32ZM10.58,12.2c-1.41,0-1.91,2.31-1.91,4.28,0,.73.07,1.51.23,2.19-.31.3-.97.77-2.01.77-1.43,0-2.96-1.19-2.96-2.96,0-1.03.54-1.74,1.09-2.19.33.35.75.61,1.2.74.89.26,1.78-.02,2.21-.7.37-.57.35-1.23-.05-1.71-.54-.65-1.63-.78-2.77-.33-.03-.17-.05-.36-.05-.55,0-.03.22-3.16,3.38-3.6,0,.02,0,.04,0,.06,0,.79.38,1.79,1.11,2.19.46.25.99.23,1.46-.07.53-.33.72-1.02.49-1.78-.19-.66-.64-1.24-1.2-1.57.28-.4.81-.89,1.71-.89.81,0,1.26.44,1.46.7.11.15.2.32.26.49-.07,0-.15,0-.22,0-.5.02-.96.29-1.19.71-.21.37-.22.79-.03,1.14.16.3.42.51.74.59-.05.18-.07.37-.04.55.04.31.21.57.46.74.27.18.62.2.94.05.18-.09.36-.24.5-.42.14.18.32.33.5.42.32.15.67.13.94-.05.25-.17.41-.44.46-.75.03-.17,0-.36-.05-.55.32-.08.58-.28.74-.59.19-.35.18-.78-.03-1.14-.24-.41-.69-.69-1.2-.71-.08,0-.15,0-.22,0,.06-.17.14-.34.26-.49.19-.26.64-.7,1.46-.7.9,0,1.43.49,1.71.89-.56.33-1.01.92-1.2,1.57-.22.77-.03,1.45.49,1.78.47.3,1,.32,1.46.07.73-.4,1.11-1.4,1.11-2.19,0-.02,0-.04,0-.06,3.16.43,3.38,3.56,3.38,3.58,0,.2-.02.39-.05.56-1.15-.45-2.23-.32-2.78.33-.4.48-.42,1.14-.05,1.71.43.68,1.32.96,2.21.7.45-.13.86-.39,1.2-.74.54.45,1.09,1.16,1.09,2.19,0,1.77-1.53,2.96-2.96,2.96-1.22,0-1.92-.67-2.15-.91.19-.74.28-1.59.28-2.4,0-1.98-.5-4.28-1.9-4.28-.94,0-1.47,1.03-1.72,2.31-.13-.07-.26-.11-.4-.13-.25-.02-.57.03-.93.32-.33-.24-.68-.35-.99-.33-.23.01-.46.1-.66.25-.22-.15-.45-.24-.69-.25-.33,0-.67.1-1,.35-.35-.27-.67-.32-.89-.3-.19.01-.37.1-.54.2-.27-1.17-.79-2.08-1.68-2.08ZM6.39,13.56c.52-.15.82-.06.83,0-.07.11-.3.18-.59.09-.07-.02-.15-.05-.24-.1ZM10.42,8.54c.09.13.16.27.2.41,0,.03.02.06.02.09-.08-.11-.17-.29-.22-.5ZM20.1,9.03s.01-.05.02-.08c.04-.13.11-.28.2-.41-.05.2-.14.38-.22.49ZM24.35,13.56c-.09.05-.17.08-.24.1-.29.08-.52.02-.64-.1.01-.02.12-.08.36-.08.12,0,.29.02.52.08ZM19.61,16.21s0-.04,0-.07c0-1.42.27-2.3.46-2.68.19.38.46,1.26.46,2.68s-.27,2.3-.46,2.68c-.18-.35-.41-1.15-.45-2.39l.03-.22h-.04ZM24.84,25.42c-.11.1-.22.21-.33.31l-.96.93h.11c-1.64,1.97-2.6,4.38-2.76,6.89h-3.64l1.87-13.56c.25.28.56.45.94.45.4,0,.72-.2.99-.52.55.45,1.47.99,2.78.99,2.13,0,4.41-1.77,4.41-4.4,0-1.71-.93-2.8-1.81-3.45.12-.39.18-.83.18-1.29,0-1.03-.89-4.84-5.2-5.06-.5-1.02-1.57-2.03-3.19-2.03-1.07,0-2,.46-2.61,1.28-.09.12-.17.25-.25.38-.07-.13-.15-.26-.25-.38-.62-.83-1.54-1.28-2.62-1.28-1.62,0-2.69,1.01-3.19,2.03-4.31.22-5.2,4.03-5.2,5.06,0,.47.06.9.18,1.29-.87.65-1.81,1.74-1.81,3.45,0,2.63,2.28,4.4,4.4,4.4,1.16,0,2-.41,2.57-.82.28.42.65.7,1.12.7.4,0,.71-.2.98-.51l1.83,13.27h-3.64c-.19-2.98-1.56-5.88-3.8-7.99-2.86-2.62-4.5-6.35-4.5-10.23C1.44,7.67,7.67,1.44,15.32,1.44s13.88,6.23,13.88,13.88c0,3.85-1.54,7.43-4.36,10.09Z"/>
  </g>
</svg>