<?xml version="1.0" encoding="UTF-8"?>
<svg id="Capa_2" data-name="Capa 2" xmlns="http://www.w3.org/2000/svg" viewBox="0 0 23.78 23.53">
  <defs>
    <style>
      .cls-1 {
        fill: #fff;
        stroke-width: 0px;
      }
    </style>
  </defs>
  <g id="TEXTOS">
    <g>
      <path class="cls-1" d="M.56,7.28l10.89,5.38c.14.07.29.1.44.1s.3-.03.44-.1l10.89-5.38c.34-.17.56-.52.56-.9s-.22-.73-.56-.9L12.33.1c-.28-.14-.61-.14-.89,0L.56,5.49C.22,5.66,0,6,0,6.38s.22.73.56.9ZM11.89,2.12l8.63,4.27-8.63,4.27L3.26,6.38,11.89,2.12Z"/>
      <path class="cls-1" d="M22.33,10.87l-10.45,5.17L1.44,10.87c-.5-.25-1.09-.04-1.34.45s-.04,1.09.45,1.34l10.89,5.38c.14.07.29.1.44.1s.3-.03.44-.1l10.89-5.38c.5-.25.7-.84.45-1.34-.25-.49-.84-.7-1.34-.45Z"/>
      <path class="cls-1" d="M22.33,16.25l-10.45,5.16L1.44,16.25c-.5-.25-1.09-.04-1.34.45s-.04,1.09.45,1.34l10.89,5.38c.14.07.29.1.44.1s.3-.03.44-.1l10.89-5.38c.5-.25.7-.84.45-1.34-.25-.49-.84-.7-1.34-.45Z"/>
    </g>
  </g>
</svg>