<?xml version="1.0" encoding="UTF-8"?>
<svg id="Capa_2" data-name="Capa 2" xmlns="http://www.w3.org/2000/svg" viewBox="0 0 22.33 19">
  <defs>
    <style>
      .cls-1 {
        fill: #fff;
        stroke-width: 0px;
      }
    </style>
  </defs>
  <g id="TEXTOS">
    <g>
      <path class="cls-1" d="M21.33,0H1C.45,0,0,.45,0,1v17c0,.55.45,1,1,1h20.33c.55,0,1-.45,1-1V1c0-.55-.45-1-1-1ZM20.33,17H2V2h18.33v15Z"/>
      <path class="cls-1" d="M4.82,12.71h0c.34.36.75.65,1.22.85.47.2,1,.3,1.58.3.65,0,1.21-.11,1.69-.32.48-.21.88-.53,1.21-.94l.2-.25-.75-.81c-.19-.2-.47-.27-.75-.13-.07.04-.13.08-.19.13-.09.08-.18.15-.27.21-.09.05-.18.1-.28.13-.1.04-.21.06-.33.08-.34.04-.79.04-1.15-.11-.21-.09-.4-.23-.56-.4-.16-.18-.29-.4-.39-.67-.1-.27-.15-.59-.15-.95s.05-.66.15-.93c.1-.26.23-.49.4-.67.17-.18.37-.32.6-.41.44-.18,1.07-.18,1.39-.08.16.05.29.11.39.16.11.06.19.12.26.17.28.21.63.21.85.05.08-.06.14-.12.19-.19l.63-.88-.23-.23c-.32-.31-.7-.57-1.14-.76-.89-.38-2.2-.38-3.18.01-.5.2-.93.48-1.29.84-.36.36-.64.79-.84,1.29-.2.49-.29,1.04-.29,1.62s.09,1.11.26,1.6c.18.5.44.93.77,1.29Z"/>
      <path class="cls-1" d="M12.72,12.71h0c.34.36.75.65,1.22.85.47.2,1,.3,1.58.3.65,0,1.21-.11,1.69-.32.48-.21.88-.53,1.21-.94l.2-.25-.75-.81c-.19-.2-.47-.27-.75-.13-.07.04-.13.08-.19.13-.09.08-.18.15-.27.21-.09.05-.18.1-.28.13-.1.04-.21.06-.33.08-.34.04-.79.04-1.15-.11-.21-.09-.4-.23-.56-.4-.16-.18-.29-.4-.39-.67-.1-.27-.15-.59-.15-.95s.05-.66.15-.93c.1-.26.23-.49.4-.67.17-.18.37-.32.6-.41.44-.18,1.07-.18,1.39-.08.16.05.29.11.39.16.11.06.19.12.26.17.28.21.63.21.85.05.08-.06.14-.12.19-.19l.63-.88-.23-.23c-.32-.31-.7-.57-1.14-.76-.89-.38-2.2-.38-3.18.01-.5.2-.93.48-1.29.84-.36.36-.64.79-.84,1.29-.2.49-.29,1.04-.29,1.62s.09,1.11.26,1.6c.18.5.44.93.77,1.29Z"/>
    </g>
  </g>
</svg>