<?xml version="1.0" encoding="UTF-8"?>
<svg id="Capa_2" data-name="Capa 2" xmlns="http://www.w3.org/2000/svg" viewBox="0 0 15.5 15.5">
  <defs>
    <style>
      .cls-1 {
        fill: #fff;
        stroke-width: 0px;
      }
    </style>
  </defs>
  <g id="TEXTOS">
    <path class="cls-1" d="M9.16,7.75L15.2,1.71c.39-.39.39-1.02,0-1.41s-1.02-.39-1.41,0l-6.04,6.04L1.71.29C1.32-.1.68-.1.29.29S-.1,1.32.29,1.71l6.04,6.04L.29,13.79c-.39.39-.39,1.02,0,1.41.2.2.45.29.71.29s.51-.1.71-.29l6.04-6.04,6.04,6.04c.2.2.45.29.71.29s.51-.1.71-.29c.39-.39.39-1.02,0-1.41l-6.04-6.04Z"/>
  </g>
</svg>