<?xml version="1.0" encoding="UTF-8"?>
<svg id="Capa_2" data-name="Capa 2" xmlns="http://www.w3.org/2000/svg" viewBox="0 0 22.38 21.34">
  <defs>
    <style>
      .cls-1 {
        fill: #fff;
        stroke-width: 0px;
      }
    </style>
  </defs>
  <g id="TEXTOS">
    <path class="cls-1" d="M17.49,21.34c-.16,0-.31-.04-.46-.11l-5.84-3.02-5.84,3.02c-.34.17-.74.14-1.05-.08-.31-.22-.46-.6-.4-.97l1.07-6.49L.3,9.07c-.27-.27-.37-.66-.25-1.02.12-.36.43-.62.8-.68l6.5-.99L10.3.51c.34-.68,1.45-.68,1.79,0l2.95,5.88,6.5.99c.37.06.68.32.8.68.12.36.02.75-.25,1.02l-4.68,4.62,1.07,6.49c.06.37-.09.75-.4.97-.17.13-.38.19-.59.19Z"/>
  </g>
</svg>