<?xml version="1.0" encoding="UTF-8"?>
<svg id="Capa_2" data-name="Capa 2" xmlns="http://www.w3.org/2000/svg" viewBox="0 0 16.26 22.15">
  <defs>
    <style>
      .cls-1 {
        fill: #fff;
        stroke-width: 0px;
      }
    </style>
  </defs>
  <g id="TEXTOS">
    <path class="cls-1" d="M4.19,15.24s0,.02,0,.02v5.89c0,.55.45,1,1,1h5.89c.55,0,1-.45,1-1v-5.89s0-.02,0-.02c2.5-1.39,4.19-4.05,4.19-7.11C16.26,3.65,12.61,0,8.13,0S0,3.65,0,8.13c0,3.05,1.69,5.72,4.19,7.11ZM10.07,16.26v3.89h-3.89v-3.89h3.89ZM8.13,2c3.38,0,6.13,2.75,6.13,6.13s-2.75,6.13-6.13,6.13-6.13-2.75-6.13-6.13,2.75-6.13,6.13-6.13Z"/>
  </g>
</svg>