<?xml version="1.0" encoding="UTF-8"?>
<svg id="Capa_2" data-name="Capa 2" xmlns="http://www.w3.org/2000/svg" viewBox="0 0 21.5 21.65">
  <defs>
    <style>
      .cls-1 {
        fill: #fff;
        stroke-width: 0px;
      }
    </style>
  </defs>
  <g id="TEXTOS">
    <path class="cls-1" d="M18.62,2.91c-1.86-1.88-4.33-2.91-6.96-2.91s-5.1,1.03-6.96,2.91c-3.59,3.63-3.81,9.39-.66,13.29l-3.75,3.75c-.39.39-.39,1.02,0,1.41.2.2.45.29.71.29s.51-.1.71-.29l3.74-3.74c1.75,1.45,3.92,2.23,6.22,2.23,2.63,0,5.1-1.03,6.96-2.91,3.83-3.87,3.83-10.16,0-14.03ZM17.2,15.53c-1.48,1.49-3.45,2.32-5.54,2.32s-4.06-.82-5.54-2.32c-3.06-3.09-3.06-8.12,0-11.21,1.48-1.49,3.45-2.32,5.54-2.32s4.06.82,5.54,2.32c3.06,3.09,3.06,8.12,0,11.21Z"/>
  </g>
</svg>