<?xml version="1.0" encoding="UTF-8"?>
<svg id="Capa_2" data-name="Capa 2" xmlns="http://www.w3.org/2000/svg" viewBox="0 0 18.87 17">
  <defs>
    <style>
      .cls-1 {
        fill: #fff;
        stroke-width: 0px;
      }
    </style>
  </defs>
  <g id="TEXTOS">
    <g>
      <path class="cls-1" d="M1,2h16.87c.55,0,1-.45,1-1s-.45-1-1-1H1C.45,0,0,.45,0,1s.45,1,1,1Z"/>
      <path class="cls-1" d="M17.87,7.5H1c-.55,0-1,.45-1,1s.45,1,1,1h16.87c.55,0,1-.45,1-1s-.45-1-1-1Z"/>
      <path class="cls-1" d="M17.87,15H1c-.55,0-1,.45-1,1s.45,1,1,1h16.87c.55,0,1-.45,1-1s-.45-1-1-1Z"/>
    </g>
  </g>
</svg>