<?xml version="1.0" encoding="UTF-8"?>
<svg id="Capa_2" data-name="Capa 2" xmlns="http://www.w3.org/2000/svg" viewBox="0 0 23.21 19.56">
  <defs>
    <style>
      .cls-1 {
        fill: #fff;
        stroke-width: 0px;
      }
    </style>
  </defs>
  <g id="TEXTOS">
    <g>
      <path class="cls-1" d="M0,6v7.56c0,.55.45,1,1,1h5.52l5.61,4.76c.18.16.42.24.65.24.14,0,.29-.03.42-.09.35-.16.58-.52.58-.91V1c0-.39-.23-.74-.58-.91-.35-.17-.77-.11-1.07.14l-5.61,4.76H1c-.55,0-1,.45-1,1ZM2,7h4.89c.24,0,.47-.08.65-.24l4.24-3.6v13.23l-4.24-3.6c-.18-.15-.41-.24-.65-.24H2v-5.56Z"/>
      <path class="cls-1" d="M15.44,11.45c-.55,0-1,.45-1,1s.45,1,1,1c2.02,0,3.67-1.64,3.67-3.67s-1.64-3.67-3.67-3.67c-.55,0-1,.45-1,1s.45,1,1,1c.92,0,1.67.75,1.67,1.67s-.75,1.67-1.67,1.67Z"/>
      <path class="cls-1" d="M16.33,2.9c-.55,0-1,.45-1,1s.45,1,1,1c2.69,0,4.88,2.19,4.88,4.88s-2.19,4.88-4.88,4.88c-.55,0-1,.45-1,1s.45,1,1,1c3.79,0,6.88-3.08,6.88-6.88s-3.08-6.88-6.88-6.88Z"/>
    </g>
  </g>
</svg>