<?xml version="1.0" encoding="UTF-8"?>
<svg id="Capa_2" data-name="Capa 2" xmlns="http://www.w3.org/2000/svg" viewBox="0 0 18.76 18.65">
  <defs>
    <style>
      .cls-1 {
        fill: #fff;
        stroke-width: 0px;
      }
    </style>
  </defs>
  <g id="TEXTOS">
    <path class="cls-1" d="M5.12,7.61c1.34,2.56,3.2,4.46,5.78,5.56.35.15,1.04-.02,1.32-.3,1.91-1.85,1.89-1.88,4.25-.64.18.1.39.16.54.29.6.49,1.6.93,1.69,1.5.19,1.24-.19,2.55-1.26,3.42-1.43,1.16-3.03,1.47-4.84.96C7.05,16.84,3.38,13.14.91,8.12-.56,5.13-.21,2.61,1.72.75c1.33-1.28,3.13-.89,3.79.81.15.38.25.79.44,1.14,1,1.84.97,3.52-.82,4.9Z"/>
  </g>
</svg>