<?xml version="1.0" encoding="UTF-8"?>
<svg id="Capa_2" data-name="Capa 2" xmlns="http://www.w3.org/2000/svg" viewBox="0 0 17.96 19.14">
  <defs>
    <style>
      .cls-1 {
        fill: #99e4ff;
        stroke-width: 0px;
      }
    </style>
  </defs>
  <g id="TEXTOS">
    <g>
      <path class="cls-1" d="M1,18.64c-.09,0-.18-.02-.26-.07-.15-.09-.24-.25-.24-.43V1c0-.18.09-.34.24-.43.08-.05.17-.07.26-.07.08,0,.16.02.24.06l15.96,8.57c.16.09.26.26.26.44s-.1.35-.26.44L1.24,18.59c-.07.04-.16.06-.24.06Z"/>
      <path class="cls-1" d="M1,1l15.96,8.57L1,18.14V1M1,0c-.18,0-.36.05-.51.14-.3.18-.49.51-.49.86v17.14c0,.35.19.68.49.86.16.09.34.14.51.14.16,0,.33-.04.47-.12l15.96-8.57c.32-.17.53-.51.53-.88s-.2-.71-.53-.88L1.47.12c-.15-.08-.31-.12-.47-.12h0Z"/>
    </g>
  </g>
</svg>