<?xml version="1.0" encoding="UTF-8"?>
<svg id="Capa_2" data-name="Capa 2" xmlns="http://www.w3.org/2000/svg" viewBox="0 0 15.11 15.11">
  <defs>
    <style>
      .cls-1 {
        fill: #004c8c;
      }
    </style>
  </defs>
  <g id="Capa_1-2" data-name="Capa 1">
    <path class="cls-1" d="M4.41,0C1.98,0,0,1.98,0,4.41v6.3c0,2.43,1.98,4.41,4.41,4.41h6.3c2.43,0,4.41-1.98,4.41-4.41v-6.3c0-2.43-1.98-4.41-4.41-4.41h-6.3ZM12.09,2.42c.33,0,.6.27.6.6s-.27.6-.6.6-.6-.27-.6-.6.27-.6.6-.6ZM7.56,3.63c2.17,0,3.93,1.76,3.93,3.93s-1.76,3.93-3.93,3.93-3.93-1.76-3.93-3.93,1.76-3.93,3.93-3.93ZM7.56,4.84c-1.5,0-2.72,1.22-2.72,2.72s1.22,2.72,2.72,2.72,2.72-1.22,2.72-2.72-1.22-2.72-2.72-2.72Z"/>
  </g>
</svg>