<?xml version="1.0" encoding="UTF-8"?>
<svg id="Capa_2" data-name="Capa 2" xmlns="http://www.w3.org/2000/svg" viewBox="0 0 16.76 12.89">
  <defs>
    <style>
      .cls-1 {
        fill: #004c8c;
      }
    </style>
  </defs>
  <g id="Capa_1-2" data-name="Capa 1">
    <path class="cls-1" d="M16.26,1.75c-.11-.46-.46-.84-.92-.98-1.23-.39-3.91-.77-6.96-.77S2.66.38,1.42.77c-.47.15-.81.52-.92.98-.21.88-.5,2.5-.5,4.69s.29,3.82.5,4.69c.11.46.46.84.92.98,1.23.39,3.91.77,6.96.77s5.72-.38,6.96-.77c.47-.15.81-.52.92-.98.21-.88.5-2.5.5-4.69s-.29-3.82-.5-4.69ZM6.77,9.02V3.87l4.79,2.58-4.79,2.58Z"/>
  </g>
</svg>