<?xml version="1.0" encoding="UTF-8"?>
<svg id="Capa_2" data-name="Capa 2" xmlns="http://www.w3.org/2000/svg" viewBox="0 0 28.52 17.49">
  <defs>
    <style>
      .cls-1 {
        fill: #fff;
        stroke-width: 0px;
      }
    </style>
  </defs>
  <g id="TEXTOS">
    <path class="cls-1" d="M28.45,8.36c-.05-.12-.12-.23-.22-.33l-2.53-2.53c-.39-.39-1.02-.39-1.41,0s-.39,1.02,0,1.41l.83.83h-3.11V1c0-.55-.45-1-1-1H1C.45,0,0,.45,0,1v15.49c0,.55.45,1,1,1h20c.55,0,1-.45,1-1v-6.75h3.11l-.83.83c-.39.39-.39,1.02,0,1.41.2.2.45.29.71.29s.51-.1.71-.29l2.53-2.53c.09-.09.17-.2.22-.33.1-.24.1-.52,0-.76ZM20,7.75h-5.53c-.55,0-1,.45-1,1s.45,1,1,1h5.53v5.75H2V2h18v5.75Z"/>
  </g>
</svg>