<?xml version="1.0" encoding="UTF-8"?>
<svg id="Capa_2" data-name="Capa 2" xmlns="http://www.w3.org/2000/svg" viewBox="0 0 22.43 22.69">
  <defs>
    <style>
      .cls-1 {
        fill: #fff;
        stroke-width: 0px;
      }
    </style>
  </defs>
  <g id="TEXTOS">
    <g>
      <path class="cls-1" d="M11.76.02c4.54.03,9.58,3.4,10.49,9.19.68,4.28-.69,7.97-4.07,10.69-3.4,2.73-7.26,3.15-11.29,1.48-.64-.27-1.17-.34-1.83-.1-1.42.5-2.88.93-4.32,1.37-.23.07-.5.02-.75.03.02-.26-.02-.53.06-.76.48-1.48.97-2.97,1.49-4.44.17-.48.14-.87-.08-1.34C-1.12,10.75.57,4.73,5.51,1.63,7.33.49,9.67-.11,11.76.02ZM3.05,19.51c1.02-.33,1.86-.63,2.73-.85.32-.08.74-.04,1.03.11,1.54.85,3.17,1.23,4.93,1.19,5.37-.11,9.65-5.51,8.4-10.74-.88-3.67-3.33-5.93-6.95-6.69-3.88-.81-7.12.55-9.36,3.79-2.15,3.1-1.9,6.35-.05,9.55.16.28.2.71.12,1.02-.21.83-.52,1.64-.84,2.6Z"/>
      <path class="cls-1" d="M8.84,10.16c.81,1.55,1.94,2.7,3.51,3.38.21.09.63-.01.8-.18,1.16-1.13,1.15-1.14,2.58-.39.11.06.23.1.33.17.36.29.97.56,1.03.91.12.76-.11,1.55-.77,2.07-.87.7-1.84.89-2.94.58-3.37-.95-5.6-3.2-7.1-6.25-.89-1.81-.68-3.34.49-4.47.81-.77,1.9-.54,2.3.49.09.23.15.48.27.69.61,1.12.59,2.14-.5,2.97Z"/>
    </g>
  </g>
</svg>